<svg viewBox="0 0 20 20" fill="none" xmlns="http://www.w3.org/2000/svg">
<path d="M10 0C4.46154 0 0 4.46172 0 10.0004C0 15.5391 4.46154 20.0008 10 20.0008C15.5385 20.0008 20 15.5391 20 10.0004C20 8.92345 19.8468 7.84678 19.4621 6.84674L18.2302 8.07726C18.384 8.69267 18.4615 9.30808 18.4615 10.0004C18.4615 14.6929 14.6923 18.4623 10 18.4623C5.30769 18.4623 1.53846 14.6929 1.53846 10.0004C1.53846 5.30791 5.30769 1.53853 10 1.53853C12.3077 1.53853 14.3074 2.46134 15.8459 3.92294L16.9231 2.84567C15.1538 1.07637 12.6923 0 10 0ZM18.6929 3.46168L10 12.155L6.69171 8.84652L5.61599 10.0004L10 14.3846L19.7686 4.61558L18.6929 3.46168Z" fill="url(#paint0_linear_1658_315)"/>
<defs>
<linearGradient id="paint0_linear_1658_315" x1="22.5641" y1="5.71972e-07" x2="-0.00972506" y2="19.9988" gradientUnits="userSpaceOnUse">
<stop offset="0.25" stop-color="#3B768F"/>
<stop offset="0.536458" stop-color="#3EC6FF"/>
<stop offset="0.817708" stop-color="#3B768F"/>
</linearGradient>
</defs>
</svg>
