<svg width="10" height="10" viewBox="0 0 10 10" fill="none" xmlns="http://www.w3.org/2000/svg">
<path d="M0 1.60001V1.80001V8.80001H10V1.60001H0ZM0.4 2.00001H9.6V2.51251C9.51096 2.58992 5.96341 5.67427 5.66914 5.9293C5.41074 6.15325 5.13564 6.2004 5 6.2004C4.86436 6.2004 4.58926 6.15325 4.33086 5.9293C4.25667 5.86501 3.72453 5.40234 3.33984 5.06797L3.33594 5.0629L3.33516 5.06368C2.19289 4.07085 0.466481 2.57031 0.4 2.51251V2.00001ZM0.4 3.04102C0.749476 3.34492 1.96826 4.40448 3.01641 5.31563L0.4 7.38282V3.04102ZM9.6 3.04102V7.3836L6.97813 5.32032C8.02573 4.40965 9.2498 3.34555 9.6 3.04102ZM3.32344 5.58282C3.57059 5.79763 4.01256 6.18183 4.06914 6.23087C4.41074 6.52692 4.77564 6.59962 5 6.59962C5.22436 6.59962 5.58926 6.52692 5.93086 6.23087C5.98701 6.1822 6.42652 5.79974 6.6707 5.58751L9.6 7.89297V8.40001H0.4V7.89297L3.32344 5.58282Z" fill="url(#paint0_linear_1658_538)"/>
<defs>
<linearGradient id="paint0_linear_1658_538" x1="5" y1="1.60001" x2="5" y2="8.80001" gradientUnits="userSpaceOnUse">
<stop stop-color="#4ABCEC"/>
<stop offset="1" stop-color="#4A8BEC"/>
</linearGradient>
</defs>
</svg>
