<svg width="15" height="15" viewBox="0 0 15 15" fill="none" xmlns="http://www.w3.org/2000/svg">
<path d="M0 1.99999V2.29999V12.8H15V1.99999H0ZM0.6 2.59999H14.4V3.36874C14.2664 3.48486 8.94511 8.11139 8.50371 8.49393C8.11611 8.82985 7.70347 8.90057 7.5 8.90057C7.29653 8.90057 6.88389 8.82985 6.49629 8.49393C6.38501 8.39749 5.5868 7.70349 5.00977 7.20194L5.00391 7.19432L5.00273 7.1955C3.28933 5.70625 0.699721 3.45544 0.6 3.36874V2.59999ZM0.6 4.16151C1.12421 4.61736 2.95238 6.2067 4.52461 7.57343L0.6 10.6742V4.16151ZM14.4 4.16151V10.6754L10.4672 7.58046C12.0386 6.21445 13.8747 4.6183 14.4 4.16151ZM4.98516 7.97421C5.35588 8.29642 6.01884 8.87272 6.10371 8.94628C6.61611 9.39036 7.16347 9.4994 7.5 9.4994C7.83653 9.4994 8.38389 9.39036 8.89629 8.94628C8.98052 8.87328 9.63978 8.29959 10.0061 7.98124L14.4 11.4394V12.2H0.6V11.4394L4.98516 7.97421Z" fill="url(#paint0_linear_1658_529)"/>
<defs>
<linearGradient id="paint0_linear_1658_529" x1="7.5" y1="1.99999" x2="7.5" y2="12.8" gradientUnits="userSpaceOnUse">
<stop offset="0.1875" stop-color="#3B768F"/>
<stop offset="0.505208" stop-color="#3EC6FF"/>
<stop offset="0.8125" stop-color="#3B768F"/>
</linearGradient>
</defs>
</svg>
