<svg viewBox="0 0 21 21" fill="none" xmlns="http://www.w3.org/2000/svg">
<g clip-path="url(#clip0_1658_556)">
<path d="M0.647318 0.798096C0.456693 0.834033 0.319193 1.00278 0.322318 1.1981V17.1981C0.322318 17.4184 0.502005 17.5981 0.722318 17.5981H7.12232V16.7981H1.12232V1.5981H19.5223V16.7981H13.5223V17.5981H19.9223C20.1426 17.5981 20.3223 17.4184 20.3223 17.1981V1.1981C20.3223 0.977783 20.1426 0.798096 19.9223 0.798096H0.722318C0.709818 0.798096 0.697318 0.798096 0.684818 0.798096C0.672318 0.798096 0.659818 0.798096 0.647318 0.798096ZM4.32232 4.3981V5.1981H16.3223V4.3981H4.32232ZM4.32232 6.3981V7.1981H16.3223V6.3981H4.32232ZM4.32232 8.3981V9.1981H16.3223V8.3981H4.32232ZM10.2848 10.3606C9.86607 10.3606 9.53326 10.6106 9.32232 10.9481C8.93169 10.8231 8.50513 10.8606 8.18482 11.1356C7.85982 11.4137 7.75982 11.8262 7.80982 12.2231C7.42857 12.3825 7.13326 12.6856 7.04732 13.0731C7.04732 13.0856 7.04732 13.0981 7.04732 13.1106C6.99888 13.4965 7.17076 13.8497 7.44732 14.1231C7.26607 14.4856 7.19888 14.9059 7.40982 15.2731C7.52857 15.4809 7.71451 15.6168 7.92232 15.7106V20.3981C7.92544 20.5387 8.00357 20.6684 8.12544 20.7372C8.24888 20.8075 8.40044 20.8059 8.52232 20.7356L10.3223 19.6606L12.1223 20.7356C12.2442 20.8059 12.3958 20.8075 12.5192 20.7372C12.6411 20.6684 12.7192 20.5387 12.7223 20.3981V15.5481C12.8161 15.4793 12.902 15.409 12.9723 15.3106C12.977 15.2981 12.9817 15.2856 12.9848 15.2731C13.1895 14.9137 13.1426 14.5059 12.9723 14.1481C13.3301 13.884 13.5661 13.5059 13.5223 13.1106C13.5192 13.0981 13.5145 13.0856 13.5098 13.0731C13.4192 12.6684 13.1192 12.3747 12.7473 12.2106C12.7926 11.8184 12.7067 11.4122 12.3848 11.1356C12.052 10.8512 11.627 10.8434 11.2473 10.9481C11.0348 10.6215 10.7161 10.3606 10.2848 10.3606ZM10.2848 11.1606C10.4676 11.1606 10.6004 11.27 10.6723 11.4606C10.7161 11.5731 10.8067 11.6606 10.9223 11.6981C10.9286 11.7012 10.9817 11.7028 10.9973 11.7106C11.0176 11.7168 11.002 11.7231 11.0473 11.7231C11.0848 11.7372 11.0864 11.7606 11.1598 11.7606C11.2254 11.759 11.2895 11.7418 11.3473 11.7106C11.5598 11.6043 11.7083 11.6059 11.8598 11.7356C12.0176 11.8715 12.0504 12.0497 11.9848 12.2231C11.9379 12.3622 11.9723 12.5153 12.0723 12.6231C12.0879 12.6543 12.1051 12.7059 12.1598 12.7606C12.2145 12.8168 12.2833 12.8559 12.3598 12.8731C12.5833 12.9231 12.6692 13.02 12.7223 13.2356C12.7379 13.42 12.7083 13.52 12.4223 13.6231C12.2645 13.6809 12.1598 13.8309 12.1598 13.9981V14.1606C12.1614 14.2418 12.1879 14.32 12.2348 14.3856C12.3489 14.5465 12.3583 14.734 12.2973 14.8606C12.1739 15.0168 11.9958 15.1043 11.8473 15.0856C11.727 15.0715 11.6083 15.1137 11.5223 15.1981L11.3973 15.3106C11.3223 15.3872 11.2817 15.4918 11.2848 15.5981C11.2848 15.8106 11.202 15.9184 11.0223 15.9856C11.0176 15.9856 11.0145 15.9856 11.0098 15.9856C11.0098 15.9809 10.9442 15.9981 10.8848 15.9981C10.7786 15.9981 10.6723 15.9481 10.5598 15.8356C10.4864 15.7637 10.3879 15.7247 10.2848 15.7231H10.0848C9.97857 15.72 9.87388 15.7606 9.79732 15.8356C9.63638 15.9965 9.50357 16.0434 9.34732 15.9856C9.19419 15.9278 9.08482 15.7512 9.08482 15.5981C9.08326 15.4887 9.03951 15.3856 8.95982 15.3106L8.84732 15.1981C8.75826 15.1106 8.63326 15.0684 8.50982 15.0856C8.35201 15.1059 8.18794 15.0231 8.10982 14.8856C8.03794 14.759 8.05201 14.5543 8.17232 14.3856C8.21919 14.32 8.24576 14.2418 8.24732 14.1606V13.9981C8.24576 13.8512 8.16451 13.7168 8.03482 13.6481C7.92857 13.5872 7.84263 13.3872 7.84732 13.2356C7.90201 13.0153 8.00201 12.8918 8.17232 12.8731C8.26138 12.8637 8.34576 12.8231 8.40982 12.7606C8.47076 12.6997 8.49576 12.6372 8.50982 12.6106C8.59732 12.5012 8.62076 12.3543 8.57232 12.2231C8.50669 12.0497 8.53951 11.8715 8.69732 11.7356C8.85044 11.6043 9.05982 11.6043 9.17232 11.6856C9.29419 11.77 9.45357 11.7793 9.58482 11.7106C9.58951 11.7106 9.59263 11.7106 9.59732 11.7106C9.60982 11.7075 9.62232 11.7028 9.63482 11.6981C9.77076 11.6575 9.87544 11.5481 9.90982 11.4106C9.94107 11.2887 10.102 11.1606 10.2848 11.1606ZM11.9223 16.1106V19.6981L10.5223 18.8606C10.3989 18.7887 10.2458 18.7887 10.1223 18.8606L8.72232 19.6981V16.5231C8.81607 16.6122 8.92701 16.6856 9.05982 16.7356C9.45669 16.884 9.83794 16.7403 10.1473 16.5231C10.1504 16.5215 10.1567 16.5247 10.1598 16.5231C10.1629 16.5247 10.1692 16.5215 10.1723 16.5231C10.3645 16.67 10.5958 16.7981 10.8848 16.7981C10.9567 16.7981 11.1114 16.7965 11.2973 16.7231C11.3036 16.7168 11.3145 16.7137 11.3223 16.7106C11.3333 16.7059 11.3364 16.7168 11.3473 16.7106V16.6981C11.6114 16.5825 11.8067 16.37 11.9223 16.1106Z" fill="url(#paint0_linear_1658_556)"/>
</g>
<defs>
<linearGradient id="paint0_linear_1658_556" x1="22.8864" y1="0.798096" x2="0.322334" y2="20.7981" gradientUnits="userSpaceOnUse">
<stop offset="0.25" stop-color="#3B768F"/>
<stop offset="0.536458" stop-color="#3EC6FF"/>
<stop offset="0.817708" stop-color="#3B768F"/>
</linearGradient>
<clipPath id="clip0_1658_556">
<rect width="20" height="20" fill="white" transform="translate(0.322266 0.798096)"/>
</clipPath>
</defs>
</svg>
