<svg width="10" height="11" viewBox="0 0 10 11" fill="none" xmlns="http://www.w3.org/2000/svg">
<g clip-path="url(#clip0_1658_570)">
<path d="M5 0.111115C2.92895 0.111115 1.25 1.91415 1.25 4.13837C1.25 6.36253 3.80561 10.4815 5 10.4815C6.19439 10.4815 8.75 6.36253 8.75 4.13837C8.75 1.91415 7.07108 0.111115 5 0.111115ZM5 5.98423C3.90977 5.98423 3.02597 5.03509 3.02597 3.86423C3.02597 2.69344 3.90977 1.74427 5 1.74427C6.09023 1.74427 6.97403 2.69344 6.97403 3.86423C6.97403 5.03509 6.09023 5.98423 5 5.98423Z" fill="url(#paint0_linear_1658_570)"/>
</g>
<defs>
<linearGradient id="paint0_linear_1658_570" x1="5" y1="0.111115" x2="5" y2="10.4815" gradientUnits="userSpaceOnUse">
<stop stop-color="#4ABCEC"/>
<stop offset="1" stop-color="#4A8BEC"/>
</linearGradient>
<clipPath id="clip0_1658_570">
<rect width="10" height="10.3704" fill="white" transform="translate(0 0.111115)"/>
</clipPath>
</defs>
</svg>
