<svg width="25" height="25" viewBox="0 0 25 25" fill="none" xmlns="http://www.w3.org/2000/svg">
<path fill-rule="evenodd" clip-rule="evenodd" d="M2.60449 11.9791C2.60449 11.6915 2.83768 11.4583 3.12533 11.4583L21.8753 11.4583C22.163 11.4583 22.3962 11.6915 22.3962 11.9791C22.3962 12.2668 22.163 12.5 21.8753 12.5L3.12533 12.5C2.83768 12.5 2.60449 12.2668 2.60449 11.9791Z" fill="url(#paint0_linear_1658_576)"/>
<path fill-rule="evenodd" clip-rule="evenodd" d="M2.60449 16.1458C2.60449 15.8582 2.83768 15.625 3.12533 15.625L21.8753 15.625C22.163 15.625 22.3962 15.8582 22.3962 16.1458C22.3962 16.4335 22.163 16.6667 21.8753 16.6667L3.12533 16.6667C2.83768 16.6667 2.60449 16.4335 2.60449 16.1458Z" fill="url(#paint1_linear_1658_576)"/>
<path fill-rule="evenodd" clip-rule="evenodd" d="M2.60449 7.81249C2.60449 7.52484 2.83768 7.29166 3.12533 7.29166L21.8753 7.29166C22.163 7.29166 22.3962 7.52484 22.3962 7.81249C22.3962 8.10014 22.163 8.33332 21.8753 8.33332L3.12533 8.33332C2.83768 8.33332 2.60449 8.10014 2.60449 7.81249Z" fill="url(#paint2_linear_1658_576)"/>
<defs>
<linearGradient id="paint0_linear_1658_576" x1="12.5003" y1="11.4583" x2="12.5003" y2="12.5" gradientUnits="userSpaceOnUse">
<stop stop-color="#03E1FF" stop-opacity="0.66"/>
<stop offset="1" stop-color="#13CDC2"/>
</linearGradient>
<linearGradient id="paint1_linear_1658_576" x1="12.5003" y1="15.625" x2="12.5003" y2="16.6667" gradientUnits="userSpaceOnUse">
<stop stop-color="#03E1FF" stop-opacity="0.66"/>
<stop offset="1" stop-color="#13CDC2"/>
</linearGradient>
<linearGradient id="paint2_linear_1658_576" x1="12.5003" y1="7.29166" x2="12.5003" y2="8.33332" gradientUnits="userSpaceOnUse">
<stop stop-color="#03E1FF" stop-opacity="0.66"/>
<stop offset="1" stop-color="#13CDC2"/>
</linearGradient>
</defs>
</svg>
