<svg width="10" height="10" viewBox="0 0 10 10" fill="none" xmlns="http://www.w3.org/2000/svg">
<path d="M2.36781 0.597654C2.21391 0.585154 2.04281 0.629686 1.885 0.740623C1.74594 0.837498 1.44594 1.07578 1.16547 1.34531C1.02563 1.47969 0.892032 1.61953 0.788907 1.75703C0.685001 1.89453 0.594376 2.02031 0.599845 2.20312C0.605314 2.36719 0.62172 2.85234 0.970939 3.59609C1.32016 4.33906 1.9975 5.35859 3.31859 6.68047C4.64047 8.00234 5.66 8.67969 6.40297 9.0289C7.14594 9.37812 7.63188 9.39453 7.79594 9.4C7.97797 9.40547 8.10375 9.31484 8.24125 9.21094C8.37875 9.10703 8.5186 8.97422 8.65297 8.83437C8.92172 8.5539 9.16 8.2539 9.25688 8.11484C9.47797 7.8 9.44125 7.42812 9.19516 7.25547C9.04047 7.14687 7.61781 6.2 7.40375 6.06875C7.18656 5.93594 6.93656 5.99609 6.71313 6.11406C6.53734 6.20703 6.06156 6.47969 5.92563 6.55781C5.82328 6.49297 5.435 6.23437 4.59984 5.39922C3.76391 4.56406 3.50609 4.17578 3.44125 4.07344C3.51938 3.9375 3.79125 3.46406 3.885 3.28515C4.00219 3.0625 4.06781 2.81015 3.92797 2.5914C3.86938 2.49844 3.60297 2.09297 3.33422 1.68594C3.06469 1.2789 2.80922 0.892967 2.74281 0.800779V0.799998C2.65609 0.680467 2.52094 0.610154 2.36781 0.597654ZM2.33109 1.00625C2.38578 1.01328 2.41859 1.03515 2.41859 1.03515C2.45063 1.07969 2.73109 1.5 2.99984 1.90625C3.26859 2.31328 3.54281 2.73047 3.59047 2.80625C3.59828 2.81797 3.60922 2.95078 3.53109 3.09844V3.09922C3.44281 3.26719 3.03109 3.98672 3.03109 3.98672L2.97406 4.0875L3.03266 4.1875C3.03266 4.1875 3.33969 4.70547 4.31625 5.68203C5.29359 6.65859 5.81156 6.9664 5.81156 6.9664L5.91156 7.025L6.01234 6.96797C6.01234 6.96797 6.73031 6.55703 6.89984 6.46797C7.0475 6.39062 7.18031 6.40078 7.19594 6.41015C7.33422 6.49531 8.87094 7.5164 8.96547 7.58281C8.9686 7.58515 9.05219 7.71172 8.93031 7.88515H8.92953C8.8561 7.99062 8.61547 8.29609 8.36469 8.55703C8.23891 8.6875 8.11 8.80937 8.00063 8.8914C7.89125 8.97344 7.7936 8.99922 7.80922 9C7.63891 8.99453 7.26313 8.99062 6.57328 8.6664C5.88344 8.34297 4.89906 7.69531 3.60141 6.39687C2.30453 5.1 1.65688 4.11562 1.33266 3.425C1.00922 2.73515 1.00531 2.35937 0.999845 2.18984C1.00063 2.20547 1.02641 2.10703 1.10844 1.99765C1.19047 1.88828 1.31156 1.75859 1.44203 1.63281C1.70375 1.38203 2.00844 1.1414 2.11391 1.06797V1.06875C2.20063 1.00781 2.27641 0.999998 2.33109 1.00625Z" fill="url(#paint0_linear_1658_542)"/>
<defs>
<linearGradient id="paint0_linear_1658_542" x1="5.00138" y1="0.595612" x2="5.00138" y2="9.40023" gradientUnits="userSpaceOnUse">
<stop stop-color="#4ABCEC"/>
<stop offset="1" stop-color="#4A8BEC"/>
</linearGradient>
</defs>
</svg>
