<svg width="25" height="25" viewBox="0 0 25 25" fill="none" xmlns="http://www.w3.org/2000/svg">
<path d="M12.4997 22.9167C18.2434 22.9167 22.9163 18.2438 22.9163 12.5C22.9163 6.75626 18.2434 2.08334 12.4997 2.08334C6.75593 2.08334 2.08301 6.75626 2.08301 12.5C2.08301 18.2438 6.75593 22.9167 12.4997 22.9167ZM12.4997 4.16668C17.0945 4.16668 20.833 7.90522 20.833 12.5C20.833 17.0948 17.0945 20.8333 12.4997 20.8333C7.90488 20.8333 4.16634 17.0948 4.16634 12.5C4.16634 7.90522 7.90488 4.16668 12.4997 4.16668Z" fill="url(#paint0_linear_1658_578)"/>
<path d="M19.7917 12.5C19.7917 8.47293 16.526 5.20834 12.5 5.20834V19.7917C16.526 19.7917 19.7917 16.5271 19.7917 12.5Z" fill="url(#paint1_linear_1658_578)"/>
<defs>
<linearGradient id="paint0_linear_1658_578" x1="12.4997" y1="2.08334" x2="12.4997" y2="22.9167" gradientUnits="userSpaceOnUse">
<stop stop-color="#03E1FF" stop-opacity="0.66"/>
<stop offset="1" stop-color="#13CDC2"/>
</linearGradient>
<linearGradient id="paint1_linear_1658_578" x1="16.1458" y1="5.20834" x2="16.1458" y2="19.7917" gradientUnits="userSpaceOnUse">
<stop stop-color="#03E1FF" stop-opacity="0.66"/>
<stop offset="1" stop-color="#13CDC2"/>
</linearGradient>
</defs>
</svg>
