<svg viewBox="0 0 10 10" fill="none" xmlns="http://www.w3.org/2000/svg">
<path d="M5 0C7.75709 0 10 2.24291 10 5C10 7.75709 7.75709 10 5 10C2.24291 10 0 7.75709 0 5C0 2.24291 2.24291 0 5 0ZM4.58334 5C4.58334 5.23041 4.76959 5.41666 5 5.41666H6.66666C6.89707 5.41666 7.08332 5.23041 7.08332 5C7.08332 4.76959 6.89707 4.58334 6.66666 4.58334H5.41666V2.08334C5.41666 1.85293 5.23041 1.66668 5 1.66668C4.76959 1.66668 4.58334 1.85293 4.58334 2.08334V5Z" fill="url(#paint0_linear_1658_546)"/>
<defs>
<linearGradient id="paint0_linear_1658_546" x1="5" y1="0" x2="5" y2="10" gradientUnits="userSpaceOnUse">
<stop stop-color="#4ABCEC"/>
<stop offset="1" stop-color="#4A8BEC"/>
</linearGradient>
</defs>
</svg>
