<svg width="15" height="15" viewBox="0 0 15 15" fill="none" xmlns="http://www.w3.org/2000/svg">
<path d="M7.12788 0.500312C6.7189 0.502656 6.30874 0.527266 5.89507 0.577656C5.10405 0.674922 4.32007 0.836641 3.56773 1.18234C2.37124 1.73195 1.5228 2.66477 1.27671 4.02062C1.17241 4.5925 1.08804 5.17258 1.03999 5.75617C0.947413 6.88938 1.00483 8.02609 1.32593 9.14289C1.57905 10.023 2.04546 10.814 2.86226 11.3273C3.20796 11.5441 3.66382 11.6495 3.90171 11.7597C3.96851 11.7913 3.98491 11.8101 3.98843 11.8148C3.99194 11.8183 4.00132 11.8265 4.00015 11.8968C3.99194 12.614 4.00015 14.0015 4.00015 14.0015L4.00132 14.3003H4.53687L4.62358 14.2159C4.62358 14.2159 5.98413 12.907 6.47632 12.3679C6.56538 12.2718 6.61109 12.2179 6.62046 12.212C6.62866 12.2062 6.6146 12.2027 6.70601 12.2003C7.35171 12.1874 7.99624 12.1628 8.64077 12.1277C9.49038 12.0808 10.3564 11.9999 11.1896 11.6519C11.915 11.3484 12.5209 10.8527 12.8876 10.1097C13.2626 9.34797 13.463 8.54055 13.538 7.705C13.6623 6.31398 13.6189 4.92063 13.2345 3.54719C13.0084 2.74211 12.5537 2.06125 11.8564 1.58078C11.022 1.00656 10.081 0.790937 9.15991 0.653828C8.62202 0.574141 8.08062 0.521406 7.53687 0.505C7.40093 0.501484 7.26499 0.499141 7.12788 0.500312ZM7.52046 1.105C8.03726 1.11906 8.55405 1.16945 9.07202 1.2468C9.9603 1.37922 10.7982 1.58078 11.5166 2.07531C12.099 2.47609 12.4623 3.0175 12.6568 3.70773C13.0154 4.99211 13.0611 6.30813 12.9404 7.65227C12.8712 8.42688 12.6873 9.15695 12.3486 9.84484C12.0498 10.4519 11.5834 10.8374 10.9576 11.0988C10.231 11.4023 9.44116 11.4831 8.60913 11.5288C7.97163 11.564 7.33296 11.5874 6.69429 11.6003C6.53374 11.6038 6.37671 11.646 6.26538 11.728C6.15405 11.8101 6.10366 11.8862 6.03452 11.9613C5.68296 12.3456 4.98218 13.0218 4.60015 13.3921C4.5978 12.9445 4.59429 12.403 4.60015 11.9038C4.60249 11.7503 4.56734 11.5933 4.47944 11.4691C4.39155 11.3448 4.27085 11.2698 4.15483 11.2159C3.81616 11.0589 3.37319 10.9394 3.18101 10.8187C2.50952 10.3968 2.12866 9.76398 1.90249 8.97649C1.60601 7.94641 1.54976 6.88586 1.63765 5.80656C1.68452 5.24641 1.76538 4.68508 1.86733 4.12844C2.08062 2.95539 2.75093 2.21711 3.81733 1.72727C4.49116 1.41789 5.21069 1.26555 5.9689 1.17297C6.48569 1.10969 7.00249 1.08977 7.52046 1.105ZM7.64702 2.60031C7.39976 2.60031 7.15952 2.62844 6.92632 2.68C6.76577 2.7175 6.66382 2.87805 6.70015 3.03977C6.73648 3.20148 6.89819 3.30227 7.05991 3.26594C7.24859 3.22258 7.44546 3.20031 7.64702 3.20031C9.11187 3.20031 10.2931 4.38156 10.2931 5.84523C10.2931 6.04797 10.2709 6.24484 10.2275 6.43469C10.1912 6.59523 10.2919 6.75695 10.4537 6.79328C10.6154 6.82961 10.7759 6.72766 10.8123 6.56594C10.865 6.33391 10.8931 6.09367 10.8931 5.84523C10.8931 4.05695 9.43648 2.60031 7.64702 2.60031ZM4.65405 3.20148C4.60483 3.19914 4.55444 3.20266 4.50171 3.21438C3.95679 3.33508 3.41538 3.73 3.40015 4.43547C3.41538 4.53391 3.41421 4.63938 3.45054 4.72844C3.62866 5.16437 3.78335 5.61438 4.00601 6.02688C5.08999 8.03078 6.72944 9.42414 8.8189 10.3089C9.06851 10.4144 9.32632 10.4366 9.57827 10.3312C9.92515 10.187 10.2193 9.96438 10.415 9.64445C10.6834 9.205 10.6869 8.90031 10.2451 8.5757C9.95562 8.36242 9.67085 8.14328 9.37788 7.93469C8.9314 7.61828 8.44859 7.5632 8.11577 8.11867C8.0982 8.1468 8.07241 8.17023 8.05015 8.19367C7.87905 8.37531 7.66929 8.41984 7.44663 8.32844C6.60171 7.98039 5.94898 7.41906 5.55523 6.58352C5.32319 6.0925 5.38648 5.84641 5.82007 5.51945C5.86343 5.48781 5.90444 5.45383 5.94429 5.4175C6.13413 5.24406 6.18452 5.03781 6.07202 4.80461C5.81773 4.27258 5.47905 3.79797 5.05015 3.38898C4.93413 3.27883 4.80171 3.20969 4.65405 3.20148ZM7.64234 3.50031C7.50991 3.50031 7.37866 3.51086 7.24976 3.53312C7.14077 3.54719 7.04819 3.61984 7.00835 3.7218C6.96851 3.82492 6.98843 3.94094 7.05874 4.02531C7.13023 4.10852 7.24273 4.14719 7.35054 4.12375C7.44429 4.10852 7.54273 4.10031 7.64234 4.10031C8.61734 4.10031 9.40015 4.88313 9.40015 5.85813C9.40015 5.95773 9.39194 6.05617 9.37671 6.14992C9.35327 6.25773 9.39194 6.37023 9.47515 6.44172C9.55952 6.51203 9.67554 6.53195 9.77866 6.49211C9.88062 6.45227 9.95327 6.35969 9.96734 6.2507C9.9896 6.1218 10.0001 5.99055 10.0001 5.85813C10.0001 4.55969 8.94077 3.50031 7.64234 3.50031ZM7.60015 4.40031C7.49234 4.39914 7.39155 4.45539 7.33648 4.54914C7.28257 4.64289 7.28257 4.75773 7.33648 4.85148C7.39155 4.94523 7.49234 5.00148 7.60015 5.00031C8.10054 5.00031 8.50015 5.39992 8.50015 5.90031C8.49898 6.00813 8.55523 6.10891 8.64898 6.16398C8.74273 6.21789 8.85757 6.21789 8.95132 6.16398C9.04507 6.10891 9.10132 6.00813 9.10015 5.90031C9.10015 5.07531 8.42515 4.40031 7.60015 4.40031Z" fill="url(#paint0_linear_1658_533)"/>
<defs>
<linearGradient id="paint0_linear_1658_533" x1="7.30006" y1="0.500008" x2="7.30006" y2="14.3003" gradientUnits="userSpaceOnUse">
<stop offset="0.192708" stop-color="#3B768F"/>
<stop offset="0.505208" stop-color="#3EC6FF"/>
<stop offset="0.822917" stop-color="#3B768F"/>
</linearGradient>
</defs>
</svg>
